<svg width="99" height="99" viewBox="0 0 99 99" fill="none" xmlns="http://www.w3.org/2000/svg">
<path d="M0 31.0884C0 16.4332 0 9.10558 4.55279 4.55279C9.10558 0 16.4332 0 31.0884 0H67.5201C82.1753 0 89.5029 0 94.0557 4.55279C98.6085 9.10558 98.6085 16.4332 98.6085 31.0884V67.5201C98.6085 82.1753 98.6085 89.5029 94.0557 94.0557C89.5029 98.6085 82.1753 98.6085 67.5201 98.6085H31.0884C16.4332 98.6085 9.10558 98.6085 4.55279 94.0557C0 89.5029 0 82.1753 0 67.5201V31.0884Z" fill="#1967D2"/>
<path d="M81.1209 57.1873V31.0353C81.1209 29.0872 79.5416 27.5079 77.5935 27.5079H71.426C69.0949 27.5079 67.4048 29.7288 68.0262 31.9756L75.2203 57.9883C75.5804 59.2904 76.7653 60.192 78.1162 60.192C79.7757 60.192 81.1209 58.8468 81.1209 57.1873Z" fill="white"/>
<path d="M57.1873 81.1209H31.0353C29.0872 81.1209 27.5079 79.5416 27.5079 77.5935V71.426C27.5079 69.0949 29.7288 67.4048 31.9756 68.0262L57.9883 75.2203C59.2904 75.5804 60.192 76.7653 60.192 78.1162C60.192 79.7757 58.8468 81.1209 57.1873 81.1209Z" fill="white"/>
<path d="M36.324 17.9727L49.4921 17.9727C50.8653 17.9727 52.1136 18.7695 52.6917 20.015L71.0948 59.6639C71.6753 60.9146 71.3327 62.3997 70.263 63.2697C68.9809 64.3125 67.0981 64.1278 66.043 62.8558L33.6089 23.7521C31.702 21.4531 33.3371 17.9727 36.324 17.9727Z" fill="white"/>
<path d="M17.9727 36.324V49.4921C17.9727 50.8653 18.7695 52.1136 20.015 52.6917L59.6639 71.0948C60.9146 71.6753 62.3997 71.3327 63.2697 70.263C64.3125 68.9809 64.1278 67.0981 62.8558 66.043L23.7521 33.6089C21.4531 31.702 17.9727 33.3371 17.9727 36.324Z" fill="white"/>
</svg>
