<svg width="398" height="99" viewBox="0 0 398 99" fill="none" xmlns="http://www.w3.org/2000/svg">
<rect width="98.6085" height="98.6085" rx="15.5442" fill="#1967D2"/>
<path d="M81.1209 57.1873V31.0353C81.1209 29.0872 79.5416 27.5079 77.5935 27.5079H71.426C69.0949 27.5079 67.4048 29.7288 68.0262 31.9756L75.2203 57.9883C75.5804 59.2904 76.7652 60.192 78.1162 60.192C79.7757 60.192 81.1209 58.8468 81.1209 57.1873Z" fill="white"/>
<path d="M57.1873 81.1209H31.0353C29.0872 81.1209 27.5079 79.5416 27.5079 77.5935V71.426C27.5079 69.0949 29.7288 67.4048 31.9756 68.0262L57.9883 75.2203C59.2904 75.5804 60.192 76.7652 60.192 78.1162C60.192 79.7757 58.8468 81.1209 57.1873 81.1209Z" fill="white"/>
<path d="M36.324 17.9727L49.4921 17.9727C50.8653 17.9727 52.1136 18.7695 52.6917 20.015L71.0948 59.6639C71.6753 60.9146 71.3327 62.3997 70.263 63.2697C68.9809 64.3125 67.0981 64.1278 66.043 62.8558L33.6089 23.7521C31.702 21.4531 33.3371 17.9727 36.324 17.9727Z" fill="white"/>
<path d="M17.9727 36.324L17.9727 49.4921C17.9727 50.8653 18.7695 52.1136 20.015 52.6917L59.6639 71.0948C60.9146 71.6753 62.3997 71.3327 63.2697 70.263C64.3125 68.9809 64.1278 67.0981 62.8558 66.043L23.7521 33.6089C21.4531 31.702 17.9727 33.3371 17.9727 36.324Z" fill="white"/>
<path fill-rule="evenodd" clip-rule="evenodd" d="M388.089 37.2085V37.2085C384.225 37.2085 381.094 34.0771 381.094 30.2136V30.2136C381.094 26.3501 384.225 23.2188 388.089 23.2188V23.2188C391.952 23.2188 395.084 26.3501 395.084 30.2136V30.2136C395.084 34.0771 391.952 37.2085 388.089 37.2085Z" stroke="#050505" stroke-width="1.5" stroke-linecap="round" stroke-linejoin="round"/>
<path d="M388.428 30.4922L389.539 32.1554" stroke="#050505" stroke-width="1.5" stroke-linecap="round" stroke-linejoin="round"/>
<path d="M386.764 30.4916H388.426C389.039 30.4916 389.538 29.9934 389.538 29.3802C389.538 28.7669 389.039 28.2695 388.426 28.2695H386.764V28.2726V32.1556" stroke="#050505" stroke-width="1.5" stroke-linecap="round" stroke-linejoin="round"/>
<path d="M129.869 26.94V69.06H119.609V26.94H129.869Z" fill="#050505"/>
<path d="M157.705 35.22C161.625 35.22 164.745 36.5 167.065 39.06C169.425 41.58 170.605 45.06 170.605 49.5V69.06H160.405V50.88C160.405 48.64 159.825 46.9 158.665 45.66C157.505 44.42 155.945 43.8 153.985 43.8C152.025 43.8 150.465 44.42 149.305 45.66C148.145 46.9 147.565 48.64 147.565 50.88V69.06H137.305V35.58H147.565V40.02C148.605 38.54 150.005 37.38 151.765 36.54C153.525 35.66 155.505 35.22 157.705 35.22Z" fill="#050505"/>
<path d="M194.534 44.1H189.014V69.06H178.754V44.1H175.034V35.58H178.754V34.62C178.754 30.5 179.934 27.38 182.294 25.26C184.654 23.1 188.114 22.02 192.674 22.02C193.434 22.02 193.994 22.04 194.354 22.08V30.78C192.394 30.66 191.014 30.94 190.214 31.62C189.414 32.3 189.014 33.52 189.014 35.28V35.58H194.534V44.1Z" fill="#050505"/>
<path d="M214.595 69.54C211.315 69.54 208.355 68.84 205.715 67.44C203.115 66.04 201.055 64.04 199.535 61.44C198.055 58.84 197.315 55.8 197.315 52.32C197.315 48.88 198.075 45.86 199.595 43.26C201.115 40.62 203.195 38.6 205.835 37.2C208.475 35.8 211.435 35.1 214.715 35.1C217.995 35.1 220.955 35.8 223.595 37.2C226.235 38.6 228.315 40.62 229.835 43.26C231.355 45.86 232.115 48.88 232.115 52.32C232.115 55.76 231.335 58.8 229.775 61.44C228.255 64.04 226.155 66.04 223.475 67.44C220.835 68.84 217.875 69.54 214.595 69.54ZM214.595 60.66C216.555 60.66 218.215 59.94 219.575 58.5C220.975 57.06 221.675 55 221.675 52.32C221.675 49.64 220.995 47.58 219.635 46.14C218.315 44.7 216.675 43.98 214.715 43.98C212.715 43.98 211.055 44.7 209.735 46.14C208.415 47.54 207.755 49.6 207.755 52.32C207.755 55 208.395 57.06 209.675 58.5C210.995 59.94 212.635 60.66 214.595 60.66Z" fill="#050505"/>
<path d="M247.819 24.66V69.06H237.559V24.66H247.819Z" fill="#050505"/>
<path d="M285.669 35.1C288.029 35.1 290.089 35.58 291.849 36.54C293.649 37.5 295.029 38.76 295.989 40.32V35.58H306.249V69C306.249 72.08 305.629 74.86 304.389 77.34C303.189 79.86 301.329 81.86 298.809 83.34C296.329 84.82 293.229 85.56 289.509 85.56C284.549 85.56 280.529 84.38 277.449 82.02C274.369 79.7 272.609 76.54 272.169 72.54H282.309C282.629 73.82 283.389 74.82 284.589 75.54C285.789 76.3 287.269 76.68 289.029 76.68C291.149 76.68 292.829 76.06 294.069 74.82C295.349 73.62 295.989 71.68 295.989 69V64.26C294.989 65.82 293.609 67.1 291.849 68.1C290.089 69.06 288.029 69.54 285.669 69.54C282.909 69.54 280.409 68.84 278.169 67.44C275.929 66 274.149 63.98 272.829 61.38C271.549 58.74 270.909 55.7 270.909 52.26C270.909 48.82 271.549 45.8 272.829 43.2C274.149 40.6 275.929 38.6 278.169 37.2C280.409 35.8 282.909 35.1 285.669 35.1ZM295.989 52.32C295.989 49.76 295.269 47.74 293.829 46.26C292.429 44.78 290.709 44.04 288.669 44.04C286.629 44.04 284.889 44.78 283.449 46.26C282.049 47.7 281.349 49.7 281.349 52.26C281.349 54.82 282.049 56.86 283.449 58.38C284.889 59.86 286.629 60.6 288.669 60.6C290.709 60.6 292.429 59.86 293.829 58.38C295.269 56.9 295.989 54.88 295.989 52.32Z" fill="#050505"/>
<path d="M334.252 35.22C338.092 35.22 341.172 36.5 343.492 39.06C345.812 41.58 346.972 45.06 346.972 49.5V69.06H336.772V50.88C336.772 48.64 336.192 46.9 335.032 45.66C333.872 44.42 332.312 43.8 330.352 43.8C328.392 43.8 326.832 44.42 325.672 45.66C324.512 46.9 323.932 48.64 323.932 50.88V69.06H313.672V24.66H323.932V40.08C324.972 38.6 326.392 37.42 328.192 36.54C329.992 35.66 332.012 35.22 334.252 35.22Z" fill="#050505"/>
<path d="M372.762 60.36V69.06H367.542C363.822 69.06 360.922 68.16 358.842 66.36C356.762 64.52 355.722 61.54 355.722 57.42V44.1H351.642V35.58H355.722V27.42H365.982V35.58H372.702V44.1H365.982V57.54C365.982 58.54 366.222 59.26 366.702 59.7C367.182 60.14 367.982 60.36 369.102 60.36H372.762Z" fill="#050505"/>
<path fill-rule="evenodd" clip-rule="evenodd" d="M255.974 30.54C257.134 31.58 258.614 32.1 260.414 32.1C262.174 32.1 263.614 31.58 264.734 30.54C265.894 29.46 266.474 28.14 266.474 26.58C266.474 24.98 265.894 23.66 264.734 22.62C263.614 21.54 262.174 21 260.414 21C258.614 21 257.134 21.54 255.974 22.62C254.854 23.66 254.294 24.98 254.294 26.58C254.294 28.14 254.854 29.46 255.974 30.54Z" fill="#1967D2"/>
<path d="M265.514 35.58V69.06H255.254V35.58H265.514Z" fill="#050505"/>
</svg>
